<?xml version="1.0" standalone="no"?><!DOCTYPE svg PUBLIC "-//W3C//DTD SVG 1.1//EN" "http://www.w3.org/Graphics/SVG/1.1/DTD/svg11.dtd"><svg t="1746585755389" class="icon" viewBox="0 0 1024 1024" version="1.1" xmlns="http://www.w3.org/2000/svg" p-id="5232" xmlns:xlink="http://www.w3.org/1999/xlink" width="200" height="200"><path d="M687.256132 340.242133v355.196291H309.808616V340.242133h377.447516m44.502448-44.190931H265.306168V739.629355h466.452412V296.028951zM367.150021 324.154498h-44.502448V103.133089h44.502448v220.999158z m111.256121 0h-44.502448V213.632668h-89.004897V169.330481h133.507345v154.712761z m111.256121-22.095465h-44.502449V147.346271h44.502449v154.712762z m111.25612 0h-44.502448V81.037623h44.502448v220.999158zM345.966856 129.745553a64.862318 64.862318 0 1 1 65.285091-64.862318 65.151584 65.151584 0 0 1-65.285091 64.862318z m0-85.511454a20.649136 20.649136 0 1 0 20.782643 20.649136 20.738141 20.738141 0 0 0-20.782643-20.626885zM568.790614 148.191818a63.171225 63.171225 0 1 1 63.593999-63.171226 63.460491 63.460491 0 0 1-63.593999 63.171226z m0-82.15152a18.980294 18.980294 0 1 0 19.091551 18.980294 19.069299 19.069299 0 0 0-19.091551-18.980294zM678.667159 920.865576h-44.502448v-198.903693h44.502448v198.903693zM656.415935 854.668184h-133.507345v-132.617296h44.502448v88.404114h89.004897V854.668184z m-200.261017 22.095466h-44.502449v-154.801767h44.502449v154.712762z m-111.256121 66.308648h-44.502448v-221.110415h44.502448v220.999159z m306.755376 80.927702a64.840067 64.840067 0 1 1 65.285092-64.862318 65.151584 65.151584 0 0 1-65.285092 64.773313z m0-85.489203a20.649136 20.649136 0 1 0 20.782643 20.626885 20.738141 20.738141 0 0 0-20.782643-20.71589z m-222.823759 63.61625a63.193477 63.193477 0 1 1 63.61625-63.193477 63.460491 63.460491 0 0 1-63.61625 63.193477z m0-82.173771a18.980294 18.980294 0 1 0 19.113802 18.980294 19.047048 19.047048 0 0 0-19.113802-18.980294zM278.145125 434.654077H11.130435v-44.213182h267.01469v44.213182z m0 110.499579H55.632883V500.87372h222.512242v44.279936z m0 88.404114H100.135331v-44.190931h178.009794v44.190931z m667.536724-243.116875H723.169607v-44.190931h222.512242v44.190931zM901.179401 500.87372h-178.009794v-44.124177h178.009794V500.87372z m111.25612 110.499579H723.169607v-44.124177h289.265914v44.213182z m-111.25612 88.404114h-178.009794v-44.124177h178.009794v44.213182z m-822.227235-17.511713a64.862318 64.862318 0 1 1 65.285092-64.862319 65.151584 65.151584 0 0 1-65.285092 64.862319z m0-85.511455a20.649136 20.649136 0 1 0 20.782643 20.649136 20.738141 20.738141 0 0 0-20.782643-20.626885z m867.797742-69.201307a64.862318 64.862318 0 1 1 65.285091-64.862318 65.151584 65.151584 0 0 1-65.285091 64.884569z m0-85.511454a20.649136 20.649136 0 1 0 20.782643 20.649136 20.738141 20.738141 0 0 0-20.782643-20.626885z m-384.656912 17.200196v117.130444h-127.121244V459.263931h127.121244m44.502448-44.190931h-216.12614v205.534558h216.12614v-205.534558z" p-id="5233"></path></svg>